<svg xmlns="http://www.w3.org/2000/svg" fill="currentColor" viewBox="0 0 960 241"><path d="M254 191V46q-1-11-12-12h-36v14h3q8-1 8 9v134zm63-143q0-16-21-17-20 1-21 17 1 17 21 17t21-17m0 143V85q-1-11-12-12h-35v14h2q9 0 8 9v95zm80-56v22q-11 11-20 11t-9-12q0-13 8-16zm-50-28q18-8 36-9 14-1 14 14v2l-42 10q-22 9-22 35 0 33 30 33 10 0 19-4t16-10v2q-1 11 11 11h33v-13h-2q-9 1-8-10v-56c0-30-11-40-40-40q-15 0-28 3t-25 10zm148 84v-79q9-10 19-10 11-2 10 15v74h36v-80c0-18-1-24-7-31q-7-8-22-8c-14 0-24 5-38 17v-4q1-12-11-12h-34v14h2q9 0 9 9v95zm173-25h-51l49-68V73h-76q-13 0-13 13v22h14v-3q-1-8 8-8h26l-49 70v24h92zm190 22V55q0-14-14-14h-31v15h2q10-1 9 10v122zm15 0h34V85q1-16-14-15h-20zm-64 0V70h-21q-14-1-14 15v103zm131-67c0 58-42 101-99 101s-99-43-99-101c0-59 42-102 99-102s99 43 99 102m20 0C960 52 909 0 841 0S722 52 722 121c0 68 51 120 119 120s119-51 119-120M49 153h44l11 38h40L104 47q-4-13-17-13H30v14h4q10 0 10 7l-3 13L0 191h38ZM192 46q-1-11-12-12h-36v14h2q10-1 9 9v134h37ZM72 70l15 58H55Z"/></svg>